<svg width="107" height="113" viewBox="0 0 107 113" fill="none" xmlns="http://www.w3.org/2000/svg">
<g filter="url(#filter0_d_146_85)">
<path d="M16 41.33C16 36.2599 23.5169 26.5173 22.6505 21.5218C20.6323 9.88418 24.2489 12.3734 27.4038 16.1281C30.0667 19.2973 33.8114 21.5218 37.9509 21.5218H60.5115C64.3069 21.5218 67.8112 19.66 70.4159 16.8995C73.9225 13.183 78.1247 10.2393 75.1897 21.5218C73.7092 27.2131 82.5052 35.2327 82.5052 41.1135V73.4349C82.5052 80.0624 77.1327 85.4349 70.5052 85.4349H28C21.3726 85.4349 16 80.0624 16 73.4349V41.33Z" fill="#969269"/>
</g>
<g clip-path="url(#clip0_146_85)">
<path fill-rule="evenodd" clip-rule="evenodd" d="M41.7181 36.1479C37.2313 37.2781 35.5021 44.596 38.7399 48.7509C42.4114 53.4623 48.6492 50.1497 48.6492 43.4887C48.6492 38.702 45.3692 35.2281 41.7181 36.1479ZM54.0846 36.1122C49.1406 37.4134 47.6505 45.4284 51.6167 49.3853C55.841 53.5998 61.8429 48.819 60.8594 42.0232C60.2911 38.0967 57.1054 35.3172 54.0846 36.1122ZM32.8948 47.2021C28.202 48.415 28.0663 57.1476 32.7185 58.548C35.2392 59.3067 37.6087 57.5501 38.2811 54.4241C39.1822 50.2344 36.2701 46.3298 32.8948 47.2021ZM63.6734 47.2036C60.539 48.0131 59.0598 52.7227 60.8472 56.2012C62.7463 59.8967 67.4088 59.4132 68.8175 55.3748C70.3668 50.933 67.4112 46.2382 63.6734 47.2036ZM47.0704 51.958C43.4774 52.3957 40.2249 54.3588 38.6414 57.0452C38.4593 57.3541 38.1647 57.7923 37.9867 58.0189C35.0111 61.8066 35.3914 67.17 38.7485 68.7639C40.2858 69.4937 41.5106 69.2104 44.66 67.3964C46.9375 66.0845 47.2789 65.9459 48.3381 65.9019C50.2919 65.8209 50.6908 65.9539 53.2662 67.5459C56.1744 69.3436 57.3936 69.6316 58.9532 68.8889C62.2747 67.3072 62.8255 62.112 60.0861 58.2061C59.8838 57.9177 59.6383 57.5301 59.5403 57.3448C57.5611 53.5975 52.2925 51.3216 47.0704 51.958Z" fill="white"/>
</g>
<defs>
<filter id="filter0_d_146_85" x="0" y="0" width="106.505" height="112.435" filterUnits="userSpaceOnUse" color-interpolation-filters="sRGB">
<feFlood flood-opacity="0" result="BackgroundImageFix"/>
<feColorMatrix in="SourceAlpha" type="matrix" values="0 0 0 0 0 0 0 0 0 0 0 0 0 0 0 0 0 0 127 0" result="hardAlpha"/>
<feOffset dx="4" dy="7"/>
<feGaussianBlur stdDeviation="10"/>
<feComposite in2="hardAlpha" operator="out"/>
<feColorMatrix type="matrix" values="0 0 0 0 0 0 0 0 0 0 0 0 0 0 0 0 0 0 0.25 0"/>
<feBlend mode="normal" in2="BackgroundImageFix" result="effect1_dropShadow_146_85"/>
<feBlend mode="normal" in="SourceGraphic" in2="effect1_dropShadow_146_85" result="shape"/>
</filter>
<clipPath id="clip0_146_85">
<rect width="39.9032" height="38.3479" fill="white" transform="translate(29.301 33.4523)"/>
</clipPath>
</defs>
</svg>
