<svg width="822" height="822" viewBox="0 0 822 822" fill="none" xmlns="http://www.w3.org/2000/svg">
<path d="M616.5 616.5C729.995 503.005 729.994 318.995 616.5 205.5C503.005 92.0055 318.995 92.0055 205.5 205.5C92.0055 318.995 92.0055 503.005 205.5 616.5C318.995 729.995 503.006 729.995 616.5 616.5Z" fill="#EAE5DF"/>
<path d="M224.734 587.469L252.421 697.7" stroke="black" stroke-miterlimit="10"/>
<path d="M356.331 371.058L267.387 384.553C267.387 384.553 258.537 387.805 223.522 385.973C188.507 384.141 159.221 403.364 148.899 433.321C145.029 444.494 137.469 463.64 129.573 483.689C139.22 520.998 156.212 556.007 179.553 586.669C189.083 587.677 198.665 588.108 208.247 587.96C208.247 587.96 213.407 607.209 219.213 629.245C271.056 674.926 337.53 700.553 406.621 701.493C429.345 694.094 451.33 684.592 472.29 673.11L461.969 558.854C461.969 558.854 491.204 550.132 517.007 520.871C522.658 514.498 460.24 407.828 442.178 385.973C424.116 364.117 356.331 371.058 356.331 371.058Z" fill="#7E7B44"/>
<path d="M395.283 550.033C415.857 521.21 409.171 481.166 380.348 460.591C351.525 440.017 311.48 446.703 290.905 475.527C270.331 504.35 277.018 544.394 305.841 564.969C334.664 585.543 374.709 578.856 395.283 550.033Z" fill="#EFD79A"/>
<path d="M323.561 487.74L327.354 510.524" stroke="#7E7B44" stroke-linecap="round" stroke-linejoin="round"/>
<path d="M353.415 482.734L357.234 505.544" stroke="#7E7B44" stroke-linecap="round" stroke-linejoin="round"/>
<path d="M382.548 501.338C384.068 511.897 381.394 522.631 375.099 531.243C368.805 539.856 359.389 545.661 348.867 547.418C338.345 549.175 327.554 546.744 318.802 540.644C310.051 534.545 304.035 525.261 302.042 514.782" stroke="#7E7B44" stroke-linecap="round" stroke-linejoin="round"/>
<path d="M257.248 386.102C257.248 386.102 298.352 427.18 336.102 417.194C368.666 408.602 362.163 370.594 362.163 370.594" stroke="#514D27" stroke-width="0.75" stroke-linecap="round" stroke-linejoin="round"/>
<path d="M248.217 308.976C248.217 308.976 264.963 332.947 267.389 384.553C267.389 384.553 303.771 412.937 329.316 409.066C354.861 405.196 356.229 371.007 356.229 371.007C343.842 353.296 336.178 332.719 333.961 311.221L248.217 308.976Z" fill="#FFB48C"/>
<path d="M312.389 341.385C324.878 339.424 332.645 334.96 337.496 330.16C335.862 323.963 334.714 317.648 334.064 311.273L248.217 308.976C251.278 313.851 253.804 319.041 255.751 324.458C269.995 333.463 292.263 344.533 312.389 341.385Z" fill="#EF8D6F"/>
<path d="M190.624 271.407C190.624 271.407 152.9 189.017 145.314 171.342C137.728 153.667 162.886 142.7 162.886 142.7C162.886 142.7 154.887 119.478 184.689 90.449C214.492 61.4205 274.484 74.9672 298.352 49.8091C298.352 49.8091 296.417 70.4516 287.386 82.063C287.386 82.063 335.122 55.6148 382.857 91.0941C382.857 91.0941 382.857 122.058 370.601 144.636C370.601 144.636 382.857 134.959 389.308 108.511C389.308 108.511 407.37 174.077 363.505 203.544L190.624 271.407Z" fill="#D86224"/>
<path d="M277.192 82.0633C277.192 82.0633 319.639 44.6487 383.501 82.0633" stroke="#D86224" stroke-width="0.5" stroke-linecap="round" stroke-linejoin="round"/>
<path d="M382.857 91.0941C382.857 91.0941 366.085 116.897 318.349 118.187" stroke="#FF8326" stroke-width="0.5" stroke-linecap="round" stroke-linejoin="round"/>
<path d="M303.564 104.641C323.415 110.379 344.391 111.036 364.562 106.55" stroke="#FF8326" stroke-width="0.5" stroke-linecap="round" stroke-linejoin="round"/>
<path d="M258.667 103.299C320.001 86.5787 351.145 120.69 367.04 176.425C382.935 232.16 382.677 295.816 338.115 310.034C293.553 324.252 230.258 321.878 203.164 265.033C176.071 208.189 167.272 128.173 258.667 103.299Z" fill="#FFB48C"/>
<path d="M336.515 159.55C326.971 158.151 317.733 155.15 309.189 150.674C316.93 140.404 336.515 146.597 336.515 159.55Z" fill="#D86224"/>
<path d="M277.193 155.267C272.832 159.808 268.187 164.194 264.291 169.097C259.698 173.406 256.86 179.418 252.499 183.986C251.13 180.51 250.724 176.729 251.323 173.041C251.923 169.354 253.506 165.897 255.905 163.033C260.498 157.176 269.658 152.325 277.193 155.267Z" fill="#D86224"/>
<path d="M331.922 266.246C331.922 266.246 301.887 281.341 278.226 259.924" stroke="#EF8D6F" stroke-width="0.75" stroke-linecap="round" stroke-linejoin="round"/>
<path d="M324.439 198.771C325.497 203.183 328.593 206.228 331.328 205.557C334.063 204.886 335.431 200.809 334.373 196.397C333.315 191.985 330.244 188.94 327.483 189.611C324.723 190.281 323.381 194.487 324.439 198.771Z" fill="#3A130E"/>
<path d="M267.749 212.808C268.807 217.22 271.903 220.239 274.638 219.594C277.373 218.949 278.741 214.82 277.683 210.408C276.625 205.996 273.554 202.977 270.794 203.622C268.033 204.267 266.691 208.395 267.749 212.808Z" fill="#3A130E"/>
<path d="M246.192 273.622C264.519 270.845 277.526 256.391 275.246 241.338C272.965 226.284 256.259 216.332 237.933 219.109C219.606 221.886 206.598 236.34 208.879 251.393C211.16 266.447 227.866 276.399 246.192 273.622Z" fill="#F27F52"/>
<path d="M365.466 189.585C367.073 189.346 368.693 189.208 370.317 189.172C374.665 206.899 376.746 225.107 376.51 243.359C375.529 243.565 374.549 243.771 373.542 243.9C355.248 246.636 338.579 236.624 336.36 221.606C334.141 206.589 347.171 192.294 365.466 189.585Z" fill="#F27F52"/>
<path d="M303.564 171.342C303.564 171.342 304.286 197.971 319.046 220.213C319.046 220.213 342.681 214.846 345.158 219.103C347.636 223.361 332.257 250.067 332.257 250.067" fill="#FFB48C"/>
<path d="M303.564 171.342C303.564 171.342 304.286 197.971 319.046 220.213C319.046 220.213 342.681 214.846 345.158 219.103C347.636 223.361 332.257 250.067 332.257 250.067" stroke="#EF8D6F" stroke-width="0.75" stroke-linecap="round" stroke-linejoin="round"/>
<path d="M212.557 154.673C247.391 155.267 288.676 113.672 287.386 82.063C296.417 70.4516 298.352 49.8091 298.352 49.8091C274.484 74.9672 214.466 61.4205 184.818 90.449C155.17 119.478 162.886 142.7 162.886 142.7C162.886 142.7 137.728 153.667 145.314 171.342C150.216 182.747 167.685 221.142 179.451 246.919C237.457 225.038 212.557 154.673 212.557 154.673Z" fill="#FF8326"/>
<path d="M162.111 131.037C162.111 131.037 173.645 101.854 216.298 99.0673C258.951 96.2805 274.458 92.3842 287.36 82.063" stroke="#D86224" stroke-width="0.5" stroke-linecap="round" stroke-linejoin="round"/>
<path d="M298.351 49.8091C290.746 62.4051 280.54 73.2324 268.414 81.5669C256.288 89.9014 242.523 95.5512 228.038 98.1384" stroke="#D86224" stroke-width="0.5" stroke-linecap="round" stroke-linejoin="round"/>
<path d="M144.823 159.55C144.823 159.55 164.046 197.197 217.33 197.687" stroke="#D86224" stroke-width="0.5" stroke-linecap="round" stroke-linejoin="round"/>
<path d="M216.298 285.65L193.075 240.391C193.075 240.391 172.226 212.008 149.777 229.27C130.012 244.571 179.193 311.84 216.298 285.65Z" fill="#FFB48C"/>
<path d="M192.173 239.127C192.818 239.901 193.179 240.391 193.179 240.391L216.402 285.65C193.179 302.035 165.208 281.831 152.41 260.647C160.848 242.017 178.6 238.611 192.173 239.127Z" fill="#EF8D6F"/>
<path d="M396.635 370.594C396.635 370.594 446.461 455.744 461.943 558.957C461.943 558.957 491.178 550.235 516.981 520.975C522.632 514.601 460.214 407.931 442.152 386.076C433.766 375.858 414.672 371.91 396.635 370.594Z" fill="#969269"/>
<path d="M459.906 546.597C459.906 546.597 486.767 537.127 514.789 510.473" stroke="#514D27" stroke-width="0.75" stroke-linecap="round" stroke-linejoin="round"/>
<path d="M439.262 155.009L491.333 235.256L395.01 278.296L369.98 239.849L439.262 155.009Z" fill="#371315"/>
<path d="M584.586 155.009L532.49 235.256L628.813 278.296L653.842 239.849L584.586 155.009Z" fill="#371315"/>
<path d="M670.794 541.308C651.545 451.564 621.536 392.475 621.536 392.475C621.536 392.475 644.062 377.2 649.248 364.84C654.435 352.48 640.501 281.909 621.536 260.105C602.571 238.301 549.958 234.534 511.924 234.534C473.89 234.534 421.252 238.301 402.286 260.105C383.321 281.909 369.387 352.48 374.6 364.84C379.812 377.2 402.286 392.475 402.286 392.475C402.286 392.475 335.611 523.71 337.34 692.179C401.794 708.987 470.064 703.178 530.751 675.72C591.438 648.262 640.87 600.818 670.794 541.308Z" fill="#D0915E"/>
<path d="M569.801 343.475C604.584 361.537 632.554 355.499 649.972 347.113C647.52 321.129 636.038 276.619 621.588 260.105C605.255 241.32 563.97 235.927 528.516 234.792C525.188 260.311 523.355 319.22 569.801 343.475Z" fill="#AD7041"/>
<path d="M337.34 690.682C337.34 691.869 337.005 692.101 338.295 692.411C339.198 692.669 340.127 692.901 341.03 693.107C342.888 693.572 344.72 694.011 346.578 694.423C350.62 695.352 354.671 696.212 358.731 697.004C366.627 698.449 374.6 699.584 382.599 700.332C399.014 701.936 415.537 702.134 431.986 700.926C435.934 700.642 439.882 700.281 443.83 699.816C445.352 699.661 448.191 699.816 449.197 698.655C450.203 697.494 451.442 695.894 452.551 694.501C456.569 689.307 460.274 683.879 463.647 678.245C470.74 666.451 476.208 653.752 479.903 640.495C487.964 612.019 485.547 581.597 473.091 554.751C463.086 533.508 447.806 515.182 428.709 501.519C414.573 491.462 398.883 483.791 382.264 478.812C379.399 477.935 376.535 477.135 373.62 476.438L370.188 475.638C368.975 479.561 367.762 483.508 366.627 487.482C361.999 503.205 357.905 519.074 354.345 535.089C342.739 586.168 337 638.405 337.237 690.785L337.34 690.682Z" fill="#AD7041"/>
<path d="M670.434 540.172C662.059 501.097 650.503 462.772 635.884 425.58C622.982 436.418 616.273 452.545 614.312 468.955C611.216 494.913 617.383 524.174 632.71 545.617C637.837 552.851 644.185 559.138 651.469 564.195C652.294 564.763 653.146 565.304 654.049 565.846C654.952 566.388 655.804 567.523 656.629 566.233C658.384 563.472 660.087 560.66 661.79 557.821C663.493 554.983 665.067 552.119 666.641 549.229C667.854 546.855 671.105 542.83 670.434 540.172Z" fill="#AD7041"/>
<path d="M369.981 239.849C366.523 231.231 429.715 152.815 439.262 155.009C448.81 157.202 464.885 257.55 458.073 267.381C451.261 277.212 380.302 265.704 369.981 239.849Z" fill="#AD7041"/>
<path d="M653.841 239.849C657.299 231.231 594.133 152.815 584.586 155.009C575.039 157.202 558.937 257.55 565.749 267.381C572.561 277.212 643.52 265.704 653.841 239.849Z" fill="#D0915E"/>
<g style="mix-blend-mode:multiply">
<path d="M464.782 521.491C464.782 521.491 450.874 576.632 480.883 605.841C480.883 605.841 475.026 586.747 480.883 574.619C480.883 574.619 480.883 611.028 533.47 620.291C533.47 620.291 541.856 598.049 540.824 576.993C540.824 576.993 546.965 592.475 545.83 602.796C545.83 602.796 567.401 594.049 569.672 559.705" stroke="#EDC8B9" stroke-width="0.75" stroke-linejoin="round"/>
</g>
<path d="M448.01 330.109C453.653 330.109 458.228 324.552 458.228 317.697C458.228 310.843 453.653 305.286 448.01 305.286C442.366 305.286 437.792 310.843 437.792 317.697C437.792 324.552 442.366 330.109 448.01 330.109Z" fill="#3A130E"/>
<path d="M448.01 330.109C453.661 330.109 458.331 324.535 458.331 317.697C458.334 315.702 457.93 313.726 457.144 311.892L438.437 321.749C438.915 323.989 440.106 326.015 441.832 327.522C443.558 329.029 445.725 329.936 448.01 330.109Z" fill="#231012"/>
<path d="M446.255 316.433C446.255 319.013 445.275 321 444.062 321C442.849 321 441.869 318.962 441.869 316.433C441.869 313.904 442.849 311.892 444.062 311.892C445.275 311.892 446.255 313.93 446.255 316.433Z" fill="#EFF6FE"/>
<path d="M586.057 317.697C586.057 324.535 581.464 330.109 575.735 330.109C570.007 330.109 565.414 324.535 565.414 317.697C565.414 310.86 569.981 305.286 575.735 305.286C581.489 305.286 586.057 310.834 586.057 317.697Z" fill="#3A130E"/>
<path d="M575.814 330.109C581.465 330.109 586.135 324.535 586.135 317.698C586.138 315.702 585.734 313.726 584.948 311.892L566.241 321.749C566.719 323.989 567.91 326.015 569.636 327.522C571.362 329.029 573.529 329.936 575.814 330.109Z" fill="#231012"/>
<path d="M574.059 316.433C574.059 319.014 573.079 321 571.866 321C570.653 321 569.673 318.962 569.673 316.433C569.673 313.905 570.653 311.892 571.866 311.892C573.079 311.892 574.059 313.93 574.059 316.433Z" fill="#EFF6FE"/>
<path d="M511.924 343.475C511.675 347.955 509.963 352.229 507.049 355.641C504.136 359.053 500.183 361.415 495.797 362.363V387.34C495.797 391.617 497.496 395.719 500.521 398.744C503.545 401.768 507.647 403.467 511.924 403.467C516.201 403.467 520.303 401.768 523.328 398.744C526.352 395.719 528.051 391.617 528.051 387.34V362.363C523.662 361.423 519.704 359.063 516.789 355.65C513.875 352.236 512.165 347.957 511.924 343.475Z" fill="#F49A8E"/>
<path d="M511.924 343.449V381.921" stroke="#E27169" stroke-linecap="round" stroke-linejoin="round"/>
<path d="M511.924 308.383C495.074 308.383 469.065 312.15 469.71 321.542C470.355 330.935 492.933 341.591 511.924 343.475C530.76 341.591 553.518 330.935 554.138 321.542C554.757 312.15 528.773 308.383 511.924 308.383Z" fill="#231012"/>
<path d="M559.041 346.184C559.041 346.184 557.674 363.111 535.044 363.111C512.415 363.111 511.821 343.475 511.821 343.475C511.821 343.475 511.331 363.111 488.599 363.111C465.866 363.111 464.602 346.184 464.602 346.184" stroke="#231012" stroke-linecap="round" stroke-linejoin="round"/>
<path d="M622.285 393.971C609.848 399.726 562.241 420.11 511.925 420.11C461.609 420.11 413.873 399.726 401.539 393.971C400.61 395.907 398.958 399.648 396.378 405.067C405.125 416.24 440.244 454.093 511.873 454.093C583.503 454.093 618.595 416.136 627.368 405.067C625.02 399.648 623.214 395.907 622.285 393.971Z" fill="#EFD79A"/>
<path d="M540.011 496.8C543.677 481.266 534.057 465.701 518.523 462.035C502.989 458.369 487.424 467.989 483.757 483.523C480.091 499.057 489.712 514.622 505.246 518.288C520.78 521.955 536.345 512.334 540.011 496.8Z" fill="#F89D4A"/>
<path d="M471.853 499.635L545.83 448.39" stroke="#EFD79A" stroke-width="3" stroke-miterlimit="10"/>
<path d="M475.078 514.033L549.056 462.814" stroke="#EFD79A" stroke-width="5" stroke-miterlimit="10"/>
<path d="M532.854 495.111C535.588 483.53 528.415 471.925 516.834 469.192C505.253 466.459 493.649 473.631 490.915 485.212C488.182 496.793 495.354 508.398 506.936 511.131C518.517 513.864 530.121 506.692 532.854 495.111Z" fill="#B2552D"/>
<path d="M533.47 490.192C533.47 485.93 532.206 481.765 529.839 478.222C527.471 474.678 524.106 471.917 520.169 470.286C516.232 468.655 511.9 468.229 507.721 469.06C503.541 469.891 499.702 471.943 496.689 474.957C493.676 477.97 491.624 481.809 490.792 485.988C489.961 490.168 490.388 494.5 492.018 498.437C493.649 502.374 496.411 505.739 499.954 508.106C503.497 510.474 507.663 511.737 511.924 511.737C514.756 511.747 517.563 511.197 520.181 510.118C522.8 509.039 525.179 507.452 527.182 505.45C529.185 503.447 530.771 501.068 531.85 498.449C532.93 495.83 533.48 493.024 533.47 490.192Z" fill="#D46327"/>
<path d="M511.924 436.469V464.827" stroke="white" stroke-width="2" stroke-linecap="round" stroke-linejoin="round"/>
<path d="M511.151 601.3C510.815 598.178 469.22 602.693 474.201 601.093C479.18 599.493 528.852 582.051 524.465 579.831C520.078 577.612 461.944 586.127 470.485 582.902C479.026 579.677 534.786 556.789 530.684 552.635C526.581 548.481 463.183 573.277 467.879 569.407C472.575 565.537 525.575 532.792 522.298 529.748C519.021 526.703 491.153 540.817 484.238 544.92C477.323 549.023 429.69 567.317 426.826 565.175C423.962 563.034 427.574 557.77 434.773 547.629C441.972 537.489 442.256 526.987 440.398 521.516C437.818 514.033 431.367 518.936 420.814 536.998C414.337 548.197 403.087 557.641 389.85 568.865C379.529 577.587 376.948 597.042 376.329 605.144C331.535 610.821 248.784 619.775 233.535 616.678C226.181 615.182 223.781 541.256 225.432 500.564C227.858 441.062 221.201 418.355 182.186 428.573C152.693 436.314 136.618 466.917 146.217 581.87C152.409 655.977 179.477 703.841 200.713 709.183C217.691 713.466 332.696 671.949 393.695 647.41C404.197 644.83 430.129 633.554 452.294 625.219C474.459 616.885 511.692 605.944 511.151 601.3Z" fill="#FFB48C"/>
<path d="M234.025 583.728C236.399 579.728 244.681 411.337 182.418 394.616C166.663 402.709 154.645 416.576 148.874 433.321C138.553 463.253 101.551 550.364 103.28 558.854C105.009 567.343 147.997 588.837 208.221 587.959C220.246 588.011 231.444 588.011 234.025 583.728Z" fill="#969269"/>
<path d="M104.054 553.383C104.054 553.383 148.203 580.657 234.902 576.89" stroke="#514D27" stroke-width="0.75" stroke-linecap="round" stroke-linejoin="round"/>
</svg>
